<svg width="1600" height="1000" viewBox="0 0 1600 1000" fill="none" xmlns="http://www.w3.org/2000/svg">
  <rect width="1600" height="1000" fill="#EDE2D1"/>
  <rect x="56" y="54" width="1488" height="892" rx="34" fill="#17324D"/>
  <text x="112" y="148" fill="#F7F0E4" font-size="50" font-family="Georgia, serif">Specialized Audit Catalog</text>
  <text x="112" y="194" fill="#D8C7AE" font-size="26" font-family="Arial, sans-serif">Use the same editorial engine, then deepen the diagnosis where the manuscript actually needs it</text>
  <rect x="102" y="252" width="330" height="240" rx="28" fill="#F7F0E4"/>
  <text x="138" y="316" fill="#17324D" font-size="34" font-family="Georgia, serif">Craft</text>
  <text x="138" y="372" fill="#17324D" font-size="24" font-family="Arial, sans-serif">Shelf positioning</text>
  <text x="138" y="410" fill="#17324D" font-size="24" font-family="Arial, sans-serif">Compression audit</text>
  <text x="138" y="448" fill="#17324D" font-size="24" font-family="Arial, sans-serif">AI prose calibration</text>
  <text x="138" y="486" fill="#17324D" font-size="24" font-family="Arial, sans-serif">Reveal economy</text>
  <rect x="452" y="252" width="330" height="240" rx="28" fill="#F7F0E4"/>
  <text x="488" y="316" fill="#17324D" font-size="34" font-family="Georgia, serif">Genre</text>
  <text x="488" y="372" fill="#17324D" font-size="24" font-family="Arial, sans-serif">Horror craft</text>
  <text x="488" y="410" fill="#17324D" font-size="24" font-family="Arial, sans-serif">Mystery architecture</text>
  <text x="488" y="448" fill="#17324D" font-size="24" font-family="Arial, sans-serif">SFF worldbuilding</text>
  <text x="488" y="486" fill="#17324D" font-size="24" font-family="Arial, sans-serif">Narrative nonfiction</text>
  <rect x="802" y="252" width="330" height="240" rx="28" fill="#F7F0E4"/>
  <text x="838" y="316" fill="#17324D" font-size="34" font-family="Georgia, serif">Tag</text>
  <text x="838" y="372" fill="#17324D" font-size="24" font-family="Arial, sans-serif">Cozy</text>
  <text x="838" y="410" fill="#17324D" font-size="24" font-family="Arial, sans-serif">Philosophical</text>
  <text x="838" y="448" fill="#17324D" font-size="24" font-family="Arial, sans-serif">Erotic content</text>
  <text x="838" y="486" fill="#17324D" font-size="24" font-family="Arial, sans-serif">Consent complexity</text>
  <rect x="1152" y="252" width="330" height="240" rx="28" fill="#C68A2D"/>
  <text x="1188" y="316" fill="#17324D" font-size="34" font-family="Georgia, serif">Research</text>
  <text x="1188" y="372" fill="#17324D" font-size="24" font-family="Arial, sans-serif">Comp validation</text>
  <text x="1188" y="410" fill="#17324D" font-size="24" font-family="Arial, sans-serif">Factual verification</text>
  <text x="1188" y="448" fill="#17324D" font-size="24" font-family="Arial, sans-serif">Citation verifier</text>
  <text x="1188" y="486" fill="#17324D" font-size="24" font-family="Arial, sans-serif">Field reconnaissance</text>
  <rect x="102" y="552" width="1380" height="302" rx="28" fill="#F7F0E4"/>
  <text x="140" y="620" fill="#17324D" font-size="34" font-family="Georgia, serif">Why It Works</text>
  <rect x="140" y="660" width="388" height="138" rx="24" fill="#FFFFFF"/>
  <text x="172" y="715" fill="#17324D" font-size="28" font-family="Arial, sans-serif">Finding-driven</text>
  <text x="172" y="753" fill="#6A7786" font-size="20" font-family="Arial, sans-serif">Surface the next right audit from the manuscript, not from a static checklist.</text>
  <rect x="598" y="660" width="388" height="138" rx="24" fill="#FFFFFF"/>
  <text x="630" y="715" fill="#17324D" font-size="28" font-family="Arial, sans-serif">Contract-aware</text>
  <text x="630" y="753" fill="#6A7786" font-size="20" font-family="Arial, sans-serif">Interpret genre, promise, and reader expectation before scoring severity.</text>
  <rect x="1056" y="660" width="388" height="138" rx="24" fill="#FFFFFF"/>
  <text x="1088" y="715" fill="#17324D" font-size="28" font-family="Arial, sans-serif">No-rewrite firewall</text>
  <text x="1088" y="753" fill="#6A7786" font-size="20" font-family="Arial, sans-serif">Diagnose and plan revision without drafting scenes or replacing the author.</text>
</svg>
